<svg viewBox="52.51 87.145 16.3 18.7" width="16.3" height="18.7">
  <path d="M 0 0 C 0 0 6.1 5.8 12.2 11.5 L 13.6 9.3 L 15.4 10.6 L 12.5 13.1 L 16.2 17.7 L 15.2 18.7 L 11.5 14.4 L 8.7 16.9 L 7.4 15.9 L 9.4 14.3 C 9.4 14.2 2.2 5.6 0 0 Z" transform="matrix(1, 0, 0, 1, 52.50951, 87.14492)"></path>
  <path d="M 11 8.4 C 11 8.4 10.9 8.3 11 8.4 C 13 5.7 15.3 2.6 16.3 0 C 16.3 0 12.5 2.4 8.5 6.1 C 9 6.7 10.4 7.8 11 8.4 L 11 8.4 Z M 4.5 11.1 C 4.3 10.9 3 9.5 3 9.5 L 1.4 10.5 L 3.8 13.1 L 0 17.6 L 1 18.6 L 4.7 14.3 L 5.8 15.3 C 6.2 14.8 6.6 14.4 7 13.9 L 7.2 13.7 C 6.3 12.9 5.4 12 4.5 11.1 L 4.5 11.1 Z" transform="matrix(1, 0, 0, 1, 52.50951, 87.14492)"></path>
</svg>