<svg xmlns="http://www.w3.org/2000/svg" viewBox="0 0 24 24">
	<path d="M15.1364 12C15.1364 9.97059 13.8933 8.41764 11.6113 8.41764H10.1345V15.5823H11.6113C13.8933 15.5823 15.1364 14.0471 15.1364 12Z"></path>
	<path fill-rule="evenodd" clip-rule="evenodd" d="M12.241 1.13253C12.0909 1.05 11.9091 1.05 11.759 1.13252L2.25904 6.35753C2.09927 6.4454 2 6.61329 2 6.79563V17.2044C2 17.3867 2.09927 17.5546 2.25904 17.6425L11.759 22.8675C11.9091 22.95 12.0909 22.95 12.241 22.8675L21.741 17.6425C21.9007 17.5546 22 17.3867 22 17.2044V6.79563C22 6.61329 21.9007 6.4454 21.741 6.35753L12.241 1.13253ZM11.6299 18H7.5V6H11.6299C15.4703 6 17.8636 8.48823 17.8636 12C17.8636 15.5118 15.4703 18 11.6299 18Z"></path>
</svg>