<svg viewBox="117.605 149.441 41.622 49.268" width="41.622" height="49.268">
  <path d="m 131.17686,149.44069 c -1.10468,6e-5 -2.00004,0.89892 -1.99952,2.00732 v 5.97536 h -9.57186 c -1.10468,-5e-4 -2.00048,0.89788 -2.00056,2.00628 -5e-4,1.10886 0.89548,2.00784 2.00056,2.00734 h 9.57186 v 35.26418 c -5.2e-4,1.10842 0.89484,2.00726 1.99952,2.00734 1.10468,-8e-5 2.00002,-0.89892 1.99952,-2.00734 v -21.08322 c 0.0472,-1.49286 0.42772,-3.08884 1.16468,-4.14116 0.61858,-0.85836 1.47902,-1.55822 2.42938,-1.97106 0.5838,-0.25358 1.087,-0.3136 1.34646,-0.2509 0.199,0.0482 0.44308,0.23278 0.54352,0.41162 0.1006,0.1788 0.0996,0.39328 0.0662,0.6812 -0.66144,5.70134 -1.2316,11.4336 -1.82798,17.1484 l 4.40204,-6.18374 c 1.78944,-2.51212 3.58534,-5.01918 5.38578,-7.52338 0.69468,-0.9662 1.29728,-1.72264 1.88586,-2.10064 0.28436,-0.1826 0.57214,-0.279 0.78946,-0.30172 0.20282,-0.0204 0.3907,0.0322 0.46398,0.0778 h 0.004 c 0.0688,0.043 0.187,0.1682 0.25834,0.33696 0.0756,0.1798 0.1218,0.445 0.1054,0.74446 -0.0338,0.61512 -0.34474,1.40902 -0.82048,2.32876 -1.62412,3.14004 -3.82524,6.07242 -6.09672,9.06722 -0.65186,0.85944 -1.38328,1.80438 -1.98814,2.95502 -0.60984,1.16004 -1.08266,2.53108 -1.0654,4.05612 0.012,1.10832 0.29124,2.20298 0.83496,3.18936 0.5447,0.98818 1.33242,1.82958 2.31262,2.42206 1.75406,1.06022 3.78826,1.16062 5.58108,0.68224 2.5739,-0.68676 4.41252,-2.39618 5.92104,-3.89542 0.8238,-0.81872 1.6851,-1.71874 2.448,-2.7943 0.76612,-1.0802 1.4257,-2.33904 1.735,-3.78554 0.22119,-1.0349 0.27369,-2.21834 -0.122,-3.41742 -0.1986,-0.60158 -0.50578,-1.18536 -0.94862,-1.7077 -0.4452,-0.5252 -1.0116,-0.96934 -1.69158,-1.25874 -1.14006,-0.48524 -2.39288,-0.46672 -3.51854,0.0508 -1.12572,0.51772 -1.96162,1.46274 -2.33948,2.64606 -0.33756,1.05506 0.2412,2.18496 1.2927,2.52366 1.05274,0.33836 2.17936,-0.2445 2.51518,-1.30124 0.0216,-0.068 0.1306,-0.19 0.1954,-0.2198 0.0648,-0.0296 0.22794,-0.032 0.29346,-0.004 0.0522,0.0222 0.1366,0.078 0.2067,0.1608 0.0726,0.0854 0.148,0.21624 0.1994,0.37224 0.1042,0.31596 0.1196,0.78812 0.008,1.31368 -0.1618,0.7569 -0.54578,1.54796 -1.08192,2.30386 -0.53938,0.76046 -1.23484,1.49836 -2.00676,2.26552 -1.39256,1.38398 -2.7601,2.5059 -4.13234,2.87206 -0.89502,0.23884 -1.85998,0.133 -2.48828,-0.24676 -0.3531,-0.21344 -0.66968,-0.54222 -0.87834,-0.92072 -0.20964,-0.38032 -0.33074,-0.84368 -0.33584,-1.2971 -0.008,-0.63464 0.21112,-1.38562 0.60554,-2.13592 0.39938,-0.7597 0.98096,-1.53896 1.63268,-2.3982 2.2741,-2.99826 4.6302,-6.10432 6.46358,-9.6489 0.54546,-1.05462 1.17246,-2.34758 1.26066,-3.9535 0.0446,-0.81106 -0.0544,-1.6786 -0.4092,-2.52368 -0.3595,-0.8561 -0.95982,-1.64194 -1.83212,-2.18672 -0.9414,-0.58798 -1.9937,-0.7659 -2.98016,-0.6667 -0.9714,0.0978 -1.82558,0.45484 -2.54614,0.91762 -1.42478,0.91502 -2.26806,2.1523 -2.97192,3.13128 -0.33222,0.46206 -0.6643,0.92496 -0.99614,1.3873 l 0.1634,-1.54592 c 0.3091,-1.21454 0.1506,-2.48298 -0.4681,-3.5844 -0.66628,-1.1861 -1.77366,-2.02458 -3.0928,-2.34328 -1.47844,-0.35714 -2.81428,0.008 -3.87092,0.4666 -0.71758,0.31172 -1.38708,0.7123 -2.00364,1.17992 v -5.56476 h 10.46778 c 1.10468,-6e-5 2.00002,-0.89892 1.99952,-2.00734 -8e-5,-1.108 -0.89526,-2.00622 -1.99952,-2.00628 h -10.468 v -5.97536 c 5e-4,-1.1084 -0.89484,-2.00726 -1.99952,-2.00732 z"></path>
</svg>