<svg viewBox="28.159 2.529 63.156 52.377" width="63.156" height="52.377">
  <path d="m 59.661146,2.5294372 c -0.792902,4.5881396 -1.375104,9.2128378 -1.748418,13.8543378 -1.338091,0.0632 -2.641607,0.2027 -3.905005,0.40646 L 48.884406,6.8136771 49.616014,17.820835 c -0.989555,0.31266 -1.937891,0.67306 -2.840661,1.07626 l -4.967283,-4.49784 1.433248,6.46888 c -3.199882,2.21704 -5.477973,5.25822 -5.767089,8.8163 -3.113453,0.3366 -6.220701,0.73648 -9.315592,1.2152 3.130999,0.4509 6.272547,0.827 9.419958,1.1426 0.363232,2.13682 1.447382,4.07004 3.001863,5.72856 l -6.005792,9.0973 9.561527,-6.23766 c 1.284274,0.7608 2.72771,1.45648 3.92464,1.9192 l -1.358848,6.13604 5.422987,-4.91048 -0.03204,-0.018 c 2.126933,0.44326 4.161907,0.6659 6.149426,0.79224 0.358522,3.46206 0.826106,6.913 1.418782,10.34252 0.02608,-0.1404 0.04878,-0.28144 0.0744,-0.42198 0.0265,0.1452 0.0495,0.29128 0.07646,0.43652 0.592974,-3.43126 1.061222,-6.88392 1.419814,-10.34774 2.138085,-0.0814 4.193661,-0.3508 6.131858,-0.78386 l 5.407487,4.89702 -1.352648,-6.1091 c 1.44909,-0.58132 2.762444,-1.22866 3.941174,-1.93164 l 9.538796,6.2231 -5.994427,-9.07966 c 1.555932,-1.66376 2.639421,-3.60344 2.996697,-5.74724 3.145321,-0.31546 6.284833,-0.69096 9.41376,-1.14156 -3.096247,-0.47892 -6.204907,-0.8785 -9.319726,-1.2152 -0.29939,-3.54744 -2.574211,-6.5812 -5.768125,-8.79244 l 1.438416,-6.49274 -4.987949,4.51756 C 71.780251,18.502775 70.83845,18.145755 69.8561,17.835435 L 70.588742,6.7992371 65.451989,16.800655 c -1.28586,-0.179 -2.670542,-0.33404 -3.891571,-0.40436 -0.37332,-4.64084 -0.955632,-9.2648182 -1.748416,-13.8522778 -0.02652,0.1428 -0.04834,0.28642 -0.0744,0.42926 -0.02694,-0.1476 -0.04908,-0.2962 -0.07646,-0.44376 z m 2.194822,18.4921578 c 4.236551,0.30282 7.998734,1.4533 10.700273,3.05662 2.564582,1.522 4.063613,3.3127 4.539479,5.11476 -5.242771,-0.38038 -10.527477,-0.65644 -15.03515,-0.71336 -0.004,-2.48742 -0.07114,-4.97428 -0.204602,-7.45804 z m -4.239809,0.014 c -0.0064,0.1264 -0.0084,0.25304 -0.0144,0.37948 -0.12008,2.35418 -0.18506,4.71086 -0.1891,7.06818 -1.817598,0.0224 -3.634474,0.0784 -5.450887,0.1492 -3.198614,0.1198 -6.394575,0.30632 -9.58426,0.57442 0.475872,-1.80206 1.974895,-3.59274 4.539477,-5.11476 2.701317,-1.60318 6.463112,-2.75366 10.69924,-3.05662 z m 19.212955,11.44884 c -0.658642,1.53952 -2.073107,3.04408 -4.272873,4.34958 -2.745567,1.62946 -6.585722,2.79372 -10.906943,3.07322 0.15416,-2.36564 0.279028,-4.57282 0.348238,-6.7706 1.686531,-0.02 3.372621,-0.0646 5.058216,-0.1224 3.26099,-0.1064 6.520083,-0.27892 9.773362,-0.52984 z m -34.185068,0.014 c 5.178789,0.34664 10.375856,0.59034 14.831579,0.64182 0.08136,2.31558 0.19148,4.57296 0.350327,6.77786 -0.175779,-0.01 -0.345565,-0.0312 -0.519771,-0.0446 -4.107758,-0.3363 -7.754909,-1.4621 -10.389236,-3.02552 -2.199764,-1.3055 -3.614233,-2.81008 -4.272875,-4.34958 z"></path>
</svg>