<svg viewBox="30.621 88.384 61.286 28.402" width="61.286" height="28.402">
  <path d="m 60.522046,88.394136 c -6.842315,0.1996 -13.609103,2.791685 -18.86782,7.152121 -4.539567,3.764119 -8.677686,7.860493 -11.033004,12.511593 2.560802,-2.06044 5.232083,-4.18526 7.993929,-6.12672 0.850208,1.0249 1.760103,1.99984 2.729071,2.9125 l -0.501172,5.20704 3.742771,-2.53094 c 0.06458,0.0468 0.12718,0.0958 0.19216,0.142 0.963048,0.68524 1.969548,1.31452 3.010122,1.87772 l 0.19736,4.2604 2.271293,-3.08772 c 1.186068,0.48196 2.40977,0.86548 3.664245,1.12602 l 0.512528,3.91926 1.993322,-3.56676 c 0.95223,0.0772 1.909399,0.0964 2.865467,0.054 l 1.490074,4.54138 1.569657,-4.86488 c 0.0278,-0.004 0.05598,-0.008 0.08378,-0.012 1.011958,-0.1702 2.01488,-0.4025 3.001862,-0.68846 l 2.024317,4.20546 1.01268,-5.30452 c 0.60969,-0.26552 1.210242,-0.55096 1.794918,-0.86678 l 2.416987,2.82022 0.288288,-4.54036 c 1.00338,-0.7478 1.939954,-1.57762 2.831374,-2.45734 l 3.196127,2.8835 v -6.36728 c 0.267872,-0.31112 0.532064,-0.62536 0.797738,-0.93836 0.468996,0.2957 0.944329,0.58454 1.437381,0.84816 1.692458,0.90478 3.648568,1.54656 5.592459,1.22242 1.370974,-0.22856 2.649146,-0.9428 3.566061,-1.99072 0.916936,-1.047917 1.458178,-2.414708 1.50663,-3.808342 0.0484,-1.393651 -0.299526,-2.870982 -1.237958,-3.899556 -0.95525,-1.046974 -2.227361,-1.827691 -3.418287,-2.238548 -0.006,-0.002 -0.014,-0.004 -0.02,-0.004 -0.0298,-0.006 -0.06018,-0.006 -0.08998,0 -0.02,0.004 -0.0394,0.01 -0.05778,0.02 -0.012,0.006 -0.024,0.012 -0.0352,0.02 -0.012,0.006 -0.0218,0.012 -0.032,0.0206 -0.008,0.008 -0.016,0.014 -0.0228,0.0228 -0.014,0.014 -0.0252,0.0304 -0.0352,0.0478 -0.012,0.018 -0.021,0.0356 -0.028,0.055 v 0.004 c -0.0011,0.004 -0.002,0.008 -0.004,0.012 -0.002,0.016 -0.004,0.0312 -0.004,0.0468 -0.0016,0.016 -0.0016,0.031 0,0.0468 0.0011,0.008 0.002,0.016 0.004,0.0238 -4e-5,0.002 -4e-5,0.006 0,0.008 0.004,0.014 0.01,0.029 0.016,0.0426 0.004,0.01 0.01,0.018 0.016,0.028 0.006,0.012 0.014,0.024 0.0228,0.0354 0.008,0.01 0.016,0.018 0.0238,0.0268 0.83335,0.786824 1.492352,1.755458 1.917876,2.821272 0.372214,0.932314 0.55464,1.961088 0.296568,2.884482 -0.12878,0.460577 -0.367256,0.891837 -0.702676,1.215174 -0.33422,0.322177 -0.772362,0.539857 -1.22244,0.583737 -0.518868,0.0506 -1.06739,-0.1226 -1.582058,-0.372237 -1.545941,-0.750117 -2.782761,-2.071971 -4.178831,-3.221442 -2.500411,-2.058708 -5.455223,-3.471062 -8.478582,-4.553803 -4.009001,-1.435711 -8.25694,-2.331045 -12.529295,-2.206408 z m -4.337983,5.096073 h 10.39028 c 0,3.183462 -2.325364,5.763807 -5.194631,5.763807 -2.869266,0 -5.195649,-2.580345 -5.195649,-5.763807 z m -3.620831,1.551111 c 0.519268,5.15911 4.208607,9.16153 8.690424,9.16153 4.390833,-2e-5 8.015984,-3.84336 8.65011,-8.850493 2.801797,1.032694 5.491057,2.458768 8.009444,4.081019 0.300728,0.193797 0.603152,0.391557 0.90418,0.588934 -3.577139,3.0407 -7.841976,5.26416 -12.380483,6.44504 -4.258657,1.10804 -8.741234,1.30178 -13.094536,0.66356 -2.476555,-0.36306 -4.917058,-0.99366 -7.241682,-1.92438 -2.398089,-0.96014 -4.666963,-2.2425 -6.733254,-3.79588 4.212427,-2.889831 8.630394,-5.305936 13.195797,-6.36933 z"></path>
</svg>