<svg viewBox="114.598 236.901 50.769 28.079" width="50.769" height="28.079">
  <path d="m 139.98392,236.90106 c -3.11052,2e-5 -6.33992,0.45776 -9.33036,1.80658 -2.18298,0.9846 -4.2813,2.47964 -5.6982,4.65944 -0.70966,1.09176 -1.22992,2.3362 -1.45676,3.6719 -0.22754,1.33982 -0.1532,2.74624 0.2929,4.08338 0.74594,2.23614 2.03906,3.60866 2.41756,4.76132 0.35372,1.07732 0.1972,2.4022 -0.39838,3.36626 -0.59564,0.96402 -1.70868,1.69626 -2.82762,1.8575 -1.11896,0.1614 -2.39188,-0.22672 -3.2338,-0.98362 -0.84192,-0.7569 -1.36518,-1.98572 -1.32788,-3.11936 a 1.9104478,1.9169237 0 0 0 -1.84732,-1.97898 1.9104478,1.9169237 0 0 0 -1.97232,1.85358 c -0.0762,2.31456 0.87826,4.5562 2.5972,6.10156 1.71896,1.54536 4.04244,2.24938 6.327,1.9202 2.28454,-0.32918 4.31418,-1.66054 5.53024,-3.6288 1.21608,-1.96826 1.50334,-4.38798 0.78112,-6.58748 -0.7372,-2.24516 -2.0357,-3.62456 -2.42144,-4.78094 -0.22724,-0.68122 -0.2772,-1.4636 -0.1484,-2.22194 0.1296,-0.76248 0.43742,-1.52706 0.88656,-2.21804 0.90072,-1.38568 2.37918,-2.49974 4.0657,-3.26044 2.3396,-1.05522 5.03096,-1.4656 7.76422,-1.46562 2.73328,0 5.42072,0.4104 7.76034,1.46562 1.68652,0.7607 3.16496,1.87476 4.06568,3.26044 0.44914,0.69098 0.76098,1.45556 0.89046,2.21804 0.1288,0.75834 0.0788,1.54072 -0.1484,2.22194 -0.38574,1.15638 -1.68814,2.53578 -2.42534,4.78094 -0.72222,2.1995 -0.43496,4.61922 0.78112,6.58748 1.21608,1.96826 3.24962,3.29962 5.53416,3.6288 2.28454,0.32918 4.60803,-0.37486 6.32699,-1.9202 1.71894,-1.54536 2.66944,-3.787 2.59328,-6.10156 a 1.9104478,1.9169237 0 0 0 -1.9723,-1.85358 1.9104478,1.9169237 0 0 0 -1.84344,1.97898 c 0.0374,1.13364 -0.48594,2.36246 -1.32788,3.11936 -0.84192,0.7569 -2.11485,1.14486 -3.23379,0.98362 -1.11894,-0.1614 -2.2359,-0.89348 -2.8315,-1.8575 -0.59564,-0.96406 -0.75212,-2.28894 -0.39838,-3.36626 0.37848,-1.15266 1.6716,-2.52518 2.41754,-4.76132 0.44604,-1.33714 0.52046,-2.74356 0.29292,-4.08338 -0.22684,-1.3357 -0.7471,-2.58014 -1.45678,-3.6719 -1.41688,-2.1798 -3.51524,-3.67484 -5.6982,-4.65944 -2.99044,-1.34882 -6.2159,-1.80658 -9.32646,-1.80658 z" id="path2884"></path>
</svg>