<svg viewBox="118.784 8.484 43 41.184" width="43" height="41.184">
  <path d="m 152.9421,8.4840559 c -13.6699,0.012 -26.95325,0.0274 -31.21317,0.028 l -2.94503,4.0084391 c 2.37039,-0.002 4.99859,1.2e-4 7.12387,0 l 0.0558,21.22426 -2.25682,3.47862 0.005,0.004 c -0.0533,0.0838 -0.10782,0.1642 -0.16018,0.25092 -0.44689,0.74164 -0.77669,1.4492 -0.97445,2.18258 -0.0989,0.36666 -0.18012,0.73132 -0.14778,1.24524 0.0253,0.4017 0.16364,1.07006 0.70991,1.60398 l 6.83247,7.15842 c 0.0231,-12.6087 -0.0249,-25.8254 -0.0548,-37.14726 h 12.51276 l 0.0796,31.72438 -2.79313,3.33658 c 3.22357,0.002 6.65968,-0.002 9.62249,0 -0.90137,-1.08044 -1.8028,-2.25622 -2.70426,-3.33658 l -0.0765,-31.72024 c 2.45039,0.001 4.4267,-0.004 6.8428,-0.004 0.34512,0.0324 0.57019,0.093 0.64687,0.1378 0.046,0.0268 0.0985,0.0848 0.11676,0.1214 0.0174,0.035 0.0272,0.1024 0.0238,0.1286 -0.004,0.0306 -0.0349,0.1406 -0.12504,0.28616 -0.0933,0.1508 -0.25176,0.34516 -0.47327,0.5765 -0.44558,0.46536 -1.19504,1.06564 -1.81558,2.11206 -0.78848,1.3296 -0.98767,2.9081 -0.55491,4.3931 0.43277,1.485 1.45008,2.708 2.82826,3.4019 1.37819,0.6939 2.95996,0.78212 4.40515,0.24264 1.44518,-0.53948 2.58749,-1.64318 3.17856,-3.0722 0.4231,-1.02386 -0.0614,-2.19802 -1.08191,-2.62218 -1.01899,-0.4243 -2.18795,0.0596 -2.61229,1.08142 -0.1494,0.36118 -0.51309,0.71492 -0.87834,0.85126 -0.36525,0.1364 -0.87103,0.108 -1.21935,-0.0674 -0.34831,-0.1754 -0.67183,-0.56514 -0.78121,-0.94044 -0.10938,-0.37532 -0.0464,-0.8781 0.15294,-1.21414 0.17382,-0.29308 0.63107,-0.72554 1.26172,-1.38418 0.3166,-0.33066 0.67132,-0.72666 0.98787,-1.238 0.31974,-0.5165 0.59433,-1.14284 0.69131,-1.885 0.11138,-0.85238 -0.035,-1.69648 -0.41437,-2.45316 -0.37858,-0.7551 -0.95836,-1.3668997 -1.67505,-1.7864994 -0.67942,-0.3977797 -1.34433,-0.5590797 -1.95302,-0.6345597 -0.38683,-0.0582 -0.81139,-0.0636 -1.16768,-0.0714 z"></path>
</svg>