<svg xmlns="http://www.w3.org/2000/svg" viewBox="-0.096 -0.006 21.213 21.213">
  <rect fill="#b0b7bd" x="2.95" y="2.95" width="15" height="15" transform="matrix(0.707107, -0.707107, 0.707107, 0.707107, -4.268074, 10.600828)"></rect>
  <path fill="#242528" d="M 12.442 11.431 C 12.51 12.074 12.319 12.718 11.912 13.221 C 11.465 13.647 10.858 13.865 10.242 13.821 C 9.586 13.85 8.948 13.603 8.482 13.141 C 8.014 12.615 7.776 11.923 7.822 11.221 L 7.822 9.101 C 7.778 8.402 8.008 7.714 8.462 7.181 C 8.905 6.728 9.519 6.484 10.152 6.511 C 10.798 6.449 11.439 6.668 11.912 7.111 C 12.333 7.609 12.547 8.25 12.512 8.901 L 11.112 8.901 C 11.155 8.556 11.088 8.206 10.922 7.901 C 10.733 7.675 10.444 7.559 10.152 7.591 C 9.864 7.579 9.59 7.719 9.432 7.961 C 9.243 8.299 9.156 8.684 9.182 9.071 L 9.182 11.211 C 9.155 11.603 9.249 11.994 9.452 12.331 C 9.632 12.579 9.926 12.718 10.232 12.701 C 10.499 12.73 10.763 12.62 10.932 12.411 C 11.087 12.102 11.146 11.754 11.102 11.411 L 12.442 11.431 Z"></path>
</svg>