<svg viewBox="9.954 -0.163 10.91 17.91" width="10.91" height="17.91">
  <path fill="#b0b7bd" d="M 16.794 10.457 C 17.227 10.457 17.444 10.19 17.444 9.657 C 17.458 9.475 17.401 9.296 17.284 9.157 C 17.152 9.04 16.979 8.982 16.804 8.997 C 16.357 8.997 16.134 9.237 16.134 9.717 C 16.134 10.197 16.354 10.443 16.794 10.457 Z"></path>
  <path fill="#b0b7bd" d="M 14.484 10.457 C 14.924 10.457 15.144 10.19 15.144 9.657 C 15.144 9.123 14.93 8.903 14.504 8.997 C 14.304 8.966 14.101 9.029 13.954 9.167 C 13.829 9.318 13.769 9.511 13.784 9.707 C 13.81 10.207 14.044 10.457 14.484 10.457 Z"></path>
  <path fill="#b0b7bd" d="M 15.444 0.487 L 15.444 -0.163 C 15.449 -0.05 15.449 0.063 15.444 0.177 C 15.438 0.063 15.438 -0.05 15.444 -0.163 L 15.444 0.487 C 14.754 3.707 9.954 8.177 9.954 11.917 C 9.954 15.917 11.954 17.717 15.374 17.747 L 15.444 17.747 C 18.914 17.747 20.864 15.887 20.864 11.917 C 20.864 8.177 16.064 3.707 15.444 0.487 Z M 13.644 6.747 C 14.207 6.29 14.919 6.058 15.644 6.097 C 16.368 6.058 17.08 6.29 17.644 6.747 C 18.12 7.175 18.378 7.796 18.344 8.437 C 18.337 9.054 18.164 9.658 17.844 10.187 C 17.803 10.275 17.776 10.37 17.764 10.467 L 17.664 11.117 L 16.574 11.637 L 16.414 12.037 C 16.154 12.112 15.884 12.146 15.614 12.137 C 15.464 12.147 15.313 12.147 15.164 12.137 C 15.045 12.123 14.928 12.1 14.814 12.067 L 14.654 11.667 L 13.554 11.147 L 13.454 10.497 C 13.378 10.237 13.263 9.991 13.114 9.767 C 12.925 9.36 12.842 8.913 12.874 8.467 C 12.847 7.804 13.132 7.168 13.644 6.747 Z M 18.034 15.837 C 17.834 16.077 17.67 16.197 17.544 16.197 C 17.417 16.197 17.267 15.993 17.094 15.587 L 17.024 15.397 C 16.519 14.967 15.973 14.588 15.394 14.267 C 14.8 14.599 14.246 14.998 13.744 15.457 C 13.677 15.943 13.53 16.187 13.304 16.187 C 13.077 16.187 12.914 16.05 12.814 15.777 C 12.374 15.777 12.154 15.657 12.154 15.417 C 12.145 15.247 12.246 15.09 12.404 15.027 C 12.726 14.907 13.062 14.826 13.404 14.787 C 13.849 14.464 14.317 14.173 14.804 13.917 C 14.243 13.613 13.645 13.388 13.024 13.247 C 12.932 13.328 12.831 13.398 12.724 13.457 C 12.647 13.5 12.561 13.524 12.474 13.527 C 12.381 13.534 12.289 13.509 12.214 13.457 C 12.151 13.405 12.118 13.327 12.124 13.247 C 12.179 13.059 12.279 12.888 12.414 12.747 C 12.379 12.616 12.359 12.482 12.354 12.347 C 12.346 12.244 12.374 12.141 12.434 12.057 C 12.492 11.993 12.577 11.959 12.664 11.967 C 12.81 11.987 12.947 12.054 13.054 12.157 C 13.264 12.336 13.458 12.533 13.634 12.747 C 14.246 12.976 14.844 13.243 15.424 13.547 C 15.704 13.393 16.197 13.167 16.904 12.867 L 17.174 12.747 C 17.368 12.544 17.575 12.353 17.794 12.177 C 17.894 12.081 18.018 12.015 18.154 11.987 C 18.229 11.98 18.303 12.01 18.354 12.067 C 18.401 12.144 18.422 12.236 18.414 12.327 C 18.424 12.466 18.424 12.607 18.414 12.747 C 18.557 12.888 18.655 13.069 18.694 13.267 C 18.699 13.348 18.67 13.428 18.614 13.487 C 18.548 13.538 18.466 13.563 18.384 13.557 C 18.299 13.547 18.217 13.52 18.144 13.477 L 17.744 13.237 C 17.118 13.389 16.516 13.624 15.954 13.937 L 16.164 14.057 C 16.424 14.203 16.757 14.4 17.164 14.647 L 17.484 14.837 C 18.27 14.93 18.664 15.13 18.664 15.437 C 18.67 15.637 18.46 15.77 18.034 15.837 Z"></path>
  <path fill="#b0b7bd" d="M 15.464 11.507 C 15.531 11.505 15.597 11.484 15.654 11.447 C 15.71 11.484 15.776 11.505 15.844 11.507 C 16.037 11.507 16.134 11.42 16.134 11.247 C 16.108 11.124 16.045 11.012 15.954 10.927 C 15.846 10.798 15.749 10.661 15.664 10.517 C 15.577 10.66 15.48 10.797 15.374 10.927 C 15.276 11.013 15.209 11.129 15.184 11.257 C 15.176 11.327 15.202 11.397 15.254 11.447 C 15.314 11.491 15.389 11.512 15.464 11.507 Z"></path>
</svg>