<svg viewBox="0.231 -2.005 20.29 19.76" width="20.29" height="19.76">
  <polygon fill="#b0b7bd" points="6.111 12.945 0.681 13.845 4.371 10.735 0.381 7.355 4.491 7.355 0.231 -2.005 5.751 2.575 4.841 -0.955 6.981 0.795 8.421 -1.575 10.161 1.565 11.901 -1.325 10.911 11.555 6.111 12.945"></polygon>
  <polygon fill="#b0b7bd" points="5.401 17.255 8.851 11.295 8.321 10.985 8.941 9.915 7.431 9.045 6.941 9.895 4.391 8.435 8.141 1.945 10.681 3.405 10.201 4.245 11.691 5.105 13.761 2.745 16.451 5.435 15.131 7.085 16.811 8.055 17.291 7.225 19.831 8.695 16.091 15.185 13.541 13.715 14.041 12.855 12.361 11.885 11.741 12.955 11.221 12.655 8.581 17.255 5.401 17.255"></polygon>
  <path fill="#242528" d="M 8.321 2.625 L 10.001 3.625 L 6.751 9.215 L 5.071 8.215 L 8.321 2.625 M 13.781 3.475 L 15.781 5.475 L 14.731 6.785 L 12.181 5.315 L 13.791 3.475 M 10.011 4.705 L 16.511 8.455 L 14.231 12.395 L 7.731 8.635 L 10.011 4.705 M 17.481 7.905 L 19.161 8.905 L 15.901 14.495 L 14.221 13.495 L 17.471 7.865 M 9.351 10.215 L 11.901 11.685 L 11.561 12.275 L 9.011 10.805 L 9.351 10.215 M 9.231 11.595 L 10.741 12.465 L 8.271 16.765 L 6.231 16.765 L 9.231 11.595 M 7.961 1.255 L 7.461 2.125 L 4.231 7.745 L 3.731 8.615 L 4.601 9.115 L 6.281 10.115 L 7.151 10.615 L 7.651 9.755 L 8.231 10.095 L 8.111 10.305 L 7.611 11.175 L 8.141 11.475 L 5.401 16.255 L 4.531 17.755 L 8.861 17.755 L 9.151 17.255 L 11.401 13.335 L 11.921 13.635 L 12.421 12.765 L 12.541 12.555 L 13.351 13.025 L 12.851 13.885 L 13.721 14.385 L 15.401 15.385 L 16.271 15.885 L 16.771 15.015 L 20.021 9.385 L 20.521 8.515 L 19.651 8.015 L 17.971 6.995 L 17.101 6.495 L 16.621 7.325 L 15.881 6.895 L 16.561 6.055 L 17.121 5.355 L 16.491 4.725 L 14.491 2.725 L 13.731 1.995 L 13.031 2.805 L 11.591 4.465 L 10.891 4.055 L 11.371 3.225 L 10.501 2.725 L 8.821 1.725 L 7.951 1.225 L 7.961 1.255 Z"></path>
</svg>