<svg viewBox="-0.065 0 15.405 16.65" width="15.405" height="16.65">
  <path fill="#b0b7bd" d="M7.59,16.65a.63.63,0,0,1-.42-.72c0-.19,0-.38,0-.64l-.63.63c-.09.09-.18.19-.28.27a.52.52,0,0,1-.74-.73c.11-.13.24-.25.37-.38l1.2-1.19a.31.31,0,0,0,.07-.2c0-.89,0-1.78,0-2.67a.25.25,0,0,0-.12-.19A2.77,2.77,0,0,1,5.7,10l-2.23,1.2a.27.27,0,0,0-.09.16q-.23,1-.45,1.93a.57.57,0,0,1-.44.5.52.52,0,0,1-.6-.64c.07-.36.17-.72.25-1.09,0,0,0-.07,0-.16l-.62.33-.48.25a.52.52,0,0,1-.71-.22.51.51,0,0,1,.22-.7l1-.52L.48,10.76a.53.53,0,1,1,.23-1c.61.14,1.24.26,1.84.44a.83.83,0,0,0,.73-.1c.63-.35,1.27-.68,1.92-1a2.43,2.43,0,0,1,0-1.47L3.49,6.67a1,1,0,0,0-.92-.14A13.48,13.48,0,0,1,.68,7,.52.52,0,1,1,.44,6l1-.24.2-.07L.57,5.1a.51.51,0,0,1,.22-1,.83.83,0,0,1,.34.09l1,.53-.23-1c0-.06,0-.12,0-.18A.52.52,0,0,1,2.29,3a.51.51,0,0,1,.6.4c.16.63.3,1.26.46,1.88a.41.41,0,0,0,.17.24L5.69,6.66l.1-.09A2.54,2.54,0,0,1,7,5.81c.11,0,.16-.07.16-.19,0-.91,0-1.81,0-2.72a.27.27,0,0,0-.07-.17L5.59,1.24A.52.52,0,1,1,6.33.51a9.67,9.67,0,0,0,.84.78c0-.22,0-.44,0-.67,0-.38.21-.62.52-.62a.56.56,0,0,1,.53.62c0,.21,0,.41,0,.62,0,0,0,0,0,.07L9.06.49A.51.51,0,0,1,9.62.33.44.44,0,0,1,10,.74a.71.71,0,0,1-.15.45c-.49.51-1,1-1.49,1.51a.31.31,0,0,0-.1.18c0,1,0,1.92,0,2.89a2.68,2.68,0,0,1,1.46.9l2.2-1.18A.3.3,0,0,0,12,5.3c.15-.62.3-1.24.45-1.86.09-.36.35-.55.65-.47a.53.53,0,0,1,.36.7l-.26,1.12.92-.49.26-.13a.52.52,0,0,1,.66.24.49.49,0,0,1-.17.66c-.28.18-.58.32-.88.48l-.26.15c.38.09.71.18,1,.24a.73.73,0,0,1,.59.44v.23c-.22.4-.36.46-.81.36l-.18,0-1.9-.51a.22.22,0,0,0-.14,0l-2,1.08a.24.24,0,0,0-.09.2,2.38,2.38,0,0,1,0,1.17c0,.14,0,.19.12.24l2,1.07a.33.33,0,0,0,.21,0l2-.49c.46-.11.59,0,.81.36v.23a.72.72,0,0,1-.59.44c-.3.06-.59.14-.93.22l.95.51a.52.52,0,0,1,.25.71.53.53,0,0,1-.75.21l-.22-.12-.91-.48.29,1.24a.52.52,0,1,1-1,.25c-.16-.68-.31-1.36-.47-2a.23.23,0,0,0-.09-.14L9.68,10a2.67,2.67,0,0,1-1.46.9c0,1,0,1.93,0,2.89a.31.31,0,0,0,.1.18c.5.5,1,1,1.49,1.51a.71.71,0,0,1,.15.45.44.44,0,0,1-.34.41.51.51,0,0,1-.56-.16l-.79-.81-.06,0c0,.19,0,.37,0,.56a.63.63,0,0,1-.45.72ZM9.24,8.33A1.56,1.56,0,0,0,7.7,6.77a1.55,1.55,0,1,0,0,3.1A1.56,1.56,0,0,0,9.24,8.33Z"></path>
</svg>