<svg xmlns="http://www.w3.org/2000/svg" viewBox="10 -0.5 18.5 18.5">
  <line fill="#b0b7bd" stroke="#b0b7bd" stroke-miterlimit="10" x1="25.924" y1="4.955" x2="23.554" y2="8.115"></line>
  <line fill="#b0b7bd" stroke="#b0b7bd" stroke-miterlimit="10" x1="22.764" y1="1.795" x2="16.444" y2="6.535"></line>
  <path fill="#b0b7bd" stroke="#b0b7bd" stroke-miterlimit="10" d="M 11.044 13.635 C 10.815 14.553 11.134 15.522 11.864 16.125 C 12.674 16.721 13.765 16.768 14.624 16.245 L 14.864 16.795 L 19.604 16.005 C 19.604 16.005 17.494 16.005 17.234 16.005 C 18.247 15.162 19.301 14.371 20.394 13.635 C 19.394 13.885 17.634 14.205 16.854 14.355 L 25.924 1.795 L 14.074 10.345 L 14.074 7.345 L 12.744 11.345 L 12.404 11.575 L 11.714 8.115 L 10.924 13.635 L 11.044 13.635 Z M 13.284 12.055 C 14.948 11.783 16.502 11.052 17.774 9.945 C 17.924 9.785 18.024 9.685 18.024 9.685 C 18.024 9.685 17.864 9.855 17.774 9.945 C 16.803 10.915 16.316 12.268 16.444 13.635 C 16.834 15.775 13.714 15.015 12.494 16.005 C 12.924 14.575 11.714 12.385 13.284 12.055 L 13.284 12.055 Z"></path>
</svg>