<svg viewBox="0.724 -1.451 21.23 19.957" width="21.23" height="19.957">
  <line fill="none" stroke="#242528" stroke-miterlimit="10" x1="7.864" y1="7.906" x2="19.824" y2="7.906"></line>
  <path fill="#b0b7bd" d="M 20.394 3.376 C 20.394 3.376 10.364 -8.154 1.784 4.426 C 1.784 4.426 14.784 -2.284 18.394 9.426 L 20.394 3.376 Z"></path>
  <path fill="#b0b7bd" d="M 1.254 17.496 L 1.254 16.966 C 1.349 15.679 1.563 14.403 1.894 13.156 C 2.384 11.356 4.984 10.446 6.074 10.156 C 5.554 5.826 6.724 3.376 7.864 2.076 C 8.641 1.07 9.791 0.421 11.054 0.276 C 12.317 0.421 13.467 1.07 14.244 2.076 C 15.364 3.376 16.554 5.826 16.004 10.136 C 17.094 10.446 19.694 11.356 20.184 13.136 C 20.515 14.383 20.729 15.659 20.824 16.946 L 20.824 17.476 L 1.254 17.496 Z M 11.014 3.356 C 10.488 3.588 10.041 3.967 9.724 4.446 C 9.054 5.622 8.902 7.023 9.304 8.316 C 9.364 8.526 10.404 12.396 11.044 14.896 C 11.724 12.386 12.724 8.546 12.804 8.296 C 13.2 7.013 13.048 5.623 12.384 4.456 C 12.066 3.944 11.583 3.555 11.014 3.356 Z"></path>
  <path fill="#242528" d="M 11.054 0.776 C 12.384 0.776 16.594 2.936 15.444 10.506 C 15.444 10.506 19.174 11.356 19.694 13.286 C 20.017 14.501 20.228 15.743 20.324 16.996 L 11.064 16.996 C 11.214 16.106 13.284 8.426 13.284 8.426 C 14.284 4.026 11.394 2.866 11.054 2.866 C 10.714 2.866 7.844 4.016 8.834 8.426 C 8.834 8.426 10.904 16.106 11.054 16.996 L 1.784 16.996 C 1.88 15.743 2.091 14.501 2.414 13.286 C 2.934 11.356 6.664 10.546 6.664 10.546 C 5.514 2.936 9.724 0.776 11.054 0.776 M 11.054 -0.224 C 9.641 -0.071 8.352 0.651 7.484 1.776 C 6.334 3.116 5.114 5.576 5.554 9.776 C 4.244 10.206 1.934 11.196 1.434 13.026 C 1.094 14.306 0.873 15.615 0.774 16.936 L 0.724 17.996 L 21.384 17.996 L 21.324 16.936 C 21.225 15.615 21.004 14.306 20.664 13.026 C 20.174 11.196 17.864 10.206 16.544 9.776 C 16.994 5.546 15.764 3.086 14.614 1.776 C 13.746 0.651 12.457 -0.071 11.044 -0.224 L 11.054 -0.224 Z M 11.054 12.906 C 10.504 10.806 9.914 8.546 9.794 8.166 C 9.104 5.106 10.574 4.166 11.054 3.906 C 11.534 4.136 13.004 5.106 12.314 8.206 C 12.204 8.606 11.614 10.816 11.064 12.906 L 11.054 12.906 Z"></path>
  <polygon fill="#b0b7bd" points="15.164 17.696 19.114 1.876 21.384 2.176 17.934 17.966 15.164 17.696"></polygon>
  <path fill="#242528" d="M 19.494 2.426 L 20.784 2.546 L 17.544 17.426 L 15.784 17.256 L 19.494 2.426 M 18.724 1.316 L 18.504 2.186 L 14.814 17.016 L 14.534 18.146 L 15.724 18.246 L 17.484 18.416 L 18.364 18.506 L 18.554 17.636 L 21.724 2.806 L 21.954 1.746 L 20.874 1.606 L 19.624 1.436 L 18.724 1.316 Z"></path>
</svg>