<svg viewBox="2.019 1.367 21.17 18.95" width="21.17" height="18.95">
  <polygon fill="#b0b7bd" points="12.649 10.847 15.089 5.147 9.779 7.867 11.999 2.837 8.279 6.527 8.279 1.367 3.749 10.847 8.279 20.317 8.279 15.167 11.999 18.847 9.779 13.817 15.089 16.537 12.649 10.847"></polygon>
  <path fill="#b0b7bd" d="M 15.329 14.007 C 12.739 14.007 6.829 13.257 4.229 11.457 L 3.339 10.837 L 4.229 10.217 C 6.829 8.417 12.739 7.667 15.329 7.667 L 22.439 7.667 L 22.439 13.997 L 15.329 14.007 Z"></path>
  <path fill="#242528" d="M 21.689 8.427 L 21.689 13.257 L 15.329 13.257 C 12.779 13.257 7.039 12.497 4.659 10.847 C 7.019 9.187 12.769 8.427 15.329 8.427 L 21.689 8.427 M 23.189 6.927 L 15.329 6.927 C 12.659 6.927 6.539 7.717 3.799 9.607 L 2.019 10.847 L 3.799 12.077 C 6.529 13.967 12.659 14.757 15.329 14.757 L 23.189 14.757 L 23.189 6.927 L 23.189 6.927 Z"></path>
</svg>