<svg xmlns="http://www.w3.org/2000/svg" viewBox="5.677 1.231 12.94 18.445" width="12.94" height="18.445">
  <path fill="#b0b7bd" d="M 12.197 14.466 C 12.75 14.159 13.727 13.709 15.127 13.116 L 15.667 12.886 C 16.052 12.48 16.463 12.099 16.897 11.746 C 17.094 11.556 17.34 11.425 17.607 11.366 C 17.76 11.354 17.909 11.417 18.007 11.536 C 18.104 11.688 18.149 11.866 18.137 12.046 C 18.128 12.325 18.098 12.602 18.047 12.876 C 18.321 13.151 18.511 13.498 18.597 13.876 C 18.609 14.034 18.554 14.19 18.447 14.306 C 18.319 14.414 18.154 14.468 17.987 14.456 C 17.821 14.436 17.66 14.382 17.517 14.296 C 17.31 14.189 17.043 14.033 16.717 13.826 C 15.535 14.119 14.396 14.563 13.327 15.146 L 13.737 15.386 C 14.25 15.679 14.883 16.069 15.637 16.556 L 16.277 16.946 C 17.837 17.126 18.617 17.519 18.617 18.126 C 18.617 18.519 18.197 18.786 17.357 18.926 C 16.963 19.406 16.63 19.646 16.357 19.646 C 16.083 19.646 15.783 19.243 15.457 18.436 C 15.13 17.629 15.083 17.506 15.317 18.066 C 14.313 17.217 13.228 16.47 12.077 15.836 C 10.908 16.509 9.821 17.315 8.837 18.236 C 8.73 19.196 8.44 19.676 7.967 19.676 C 7.687 19.676 7.353 19.403 6.967 18.856 C 6.107 18.856 5.677 18.616 5.677 18.136 C 5.668 17.806 5.862 17.504 6.167 17.376 C 6.828 17.135 7.517 16.977 8.217 16.906 C 9.102 16.268 10.031 15.693 10.997 15.186 C 9.888 14.59 8.704 14.146 7.477 13.866 C 7.297 14.029 7.099 14.17 6.887 14.286 C 6.734 14.372 6.562 14.42 6.387 14.426 C 6.2 14.425 6.019 14.358 5.877 14.236 C 5.762 14.15 5.689 14.019 5.677 13.876 C 5.785 13.502 5.98 13.159 6.247 12.876 C 6.174 12.615 6.131 12.347 6.117 12.076 C 6.1 11.874 6.153 11.673 6.267 11.506 C 6.379 11.376 6.545 11.306 6.717 11.316 C 7.008 11.361 7.278 11.498 7.487 11.706 C 7.918 12.063 8.316 12.458 8.677 12.886 C 9.882 13.339 11.057 13.867 12.197 14.466 Z"></path>
  <path fill="#b0b7bd" d="M 14.577 10.546 L 14.257 11.816 L 13.477 12.496 C 13.359 12.744 13.171 12.952 12.937 13.096 C 12.693 13.234 12.417 13.303 12.137 13.296 C 11.57 13.321 11.044 13.006 10.797 12.496 L 10.007 11.816 L 9.677 10.546 L 10.147 10.426 L 10.267 10.726 C 10.391 11.083 10.617 11.396 10.917 11.626 C 11.281 11.799 11.684 11.875 12.087 11.846 C 12.524 11.879 12.963 11.807 13.367 11.636 C 13.672 11.407 13.899 11.089 14.017 10.726 L 14.137 10.426 L 14.577 10.546 Z"></path>
  <path fill="#b0b7bd" d="M 15.347 2.306 C 14.431 1.564 13.275 1.183 12.097 1.236 C 10.919 1.183 9.763 1.564 8.847 2.306 C 8.03 2.994 7.573 4.018 7.607 5.086 C 7.555 5.825 7.693 6.565 8.007 7.236 C 8.249 7.606 8.435 8.011 8.557 8.436 L 8.677 9.516 L 10.487 10.376 L 10.747 11.026 C 10.936 11.083 11.13 11.123 11.327 11.146 C 11.573 11.162 11.82 11.162 12.067 11.146 C 12.523 11.184 12.983 11.147 13.427 11.036 L 13.677 10.376 L 15.477 9.516 L 15.677 8.436 C 15.699 8.277 15.742 8.123 15.807 7.976 C 16.335 7.104 16.618 6.105 16.627 5.086 C 16.651 4.012 16.179 2.986 15.347 2.306 Z M 10.227 8.416 C 9.513 8.416 9.157 8.006 9.157 7.186 C 9.132 6.864 9.232 6.545 9.437 6.296 C 9.659 6.083 9.96 5.974 10.267 5.996 C 10.933 5.996 11.267 6.359 11.267 7.086 C 11.3 7.973 10.953 8.416 10.227 8.416 Z M 12.467 10.146 C 12.356 10.142 12.249 10.107 12.157 10.046 C 12.065 10.107 11.957 10.142 11.847 10.146 C 11.722 10.155 11.598 10.12 11.497 10.046 C 11.411 9.967 11.367 9.852 11.377 9.736 C 11.425 9.543 11.529 9.369 11.677 9.236 C 11.854 9.022 12.014 8.794 12.157 8.556 C 12.31 8.797 12.484 9.025 12.677 9.236 C 12.833 9.376 12.942 9.561 12.987 9.766 C 12.96 10.019 12.787 10.146 12.467 10.146 Z M 14.037 8.416 C 13.317 8.416 12.957 8.006 12.957 7.186 C 12.957 6.366 13.323 5.973 14.057 6.006 C 14.344 5.97 14.633 6.053 14.857 6.236 C 15.047 6.465 15.141 6.759 15.117 7.056 C 15.117 7.963 14.757 8.416 14.037 8.416 Z"></path>
</svg>