<svg xmlns="http://www.w3.org/2000/svg" viewBox="1.802 -1.9 21 20.98" width="21" height="20.98">
  <polygon fill="#b0b7bd" points="10.932 16.02 2.502 17.1 8.232 13.38 2.032 9.31 8.412 9.31 1.802 -1.9 10.372 3.6 8.952 -0.64 12.282 1.45 14.512 -1.39 17.212 2.38 19.912 -1.09 18.382 14.35 10.932 16.02"></polygon>
  <path fill="#b0b7bd" d="M 8.652 18.6 L 8.502 18.43 C 8.212 18.11 7.932 17.77 7.672 17.43 L 7.282 16.89 L 8.112 16.58 C 8.262 16.516 8.415 16.463 8.572 16.42 C 9.906 16.075 11.207 15.617 12.462 15.05 L 12.532 14.9 C 12.532 14.75 12.612 14.61 12.652 14.46 C 12.216 13.773 11.926 13.004 11.802 12.2 C 11.731 12.175 11.664 12.142 11.602 12.1 C 11.491 11.979 11.397 11.845 11.322 11.7 C 11.046 11.102 10.871 10.464 10.802 9.81 C 10.797 9.723 10.797 9.636 10.802 9.55 C 10.752 9.158 10.926 8.772 11.252 8.55 C 11.201 8.309 11.168 8.065 11.152 7.82 C 11.085 6.618 11.503 5.44 12.312 4.55 C 13.049 3.637 14.064 2.991 15.202 2.71 C 15.531 2.641 15.866 2.605 16.202 2.6 C 17.33 2.58 18.417 3.029 19.202 3.84 C 19.401 4.062 19.634 4.251 19.892 4.4 C 20.509 4.76 20.92 5.39 21.002 6.1 C 21.154 6.939 21.154 7.8 21.002 8.64 C 21.002 8.78 21.002 8.87 20.952 8.96 C 21.11 9.139 21.199 9.37 21.202 9.61 C 21.207 10.486 20.972 11.347 20.522 12.1 C 20.408 12.321 20.215 12.493 19.982 12.58 C 19.892 12.89 19.792 13.19 19.682 13.48 C 19.603 13.673 19.509 13.86 19.402 14.04 L 19.242 14.33 C 19.238 14.366 19.238 14.403 19.242 14.44 L 19.242 14.56 C 19.271 14.873 19.496 15.134 19.802 15.21 C 20.512 15.47 21.222 15.71 21.942 15.94 L 22.292 16.05 L 22.292 18.6 L 8.652 18.6 Z"></path>
  <path fill="#242528" d="M 16.252 3.1 C 17.238 3.088 18.185 3.482 18.872 4.19 C 19.104 4.453 19.378 4.676 19.682 4.85 C 20.152 5.138 20.459 5.631 20.512 6.18 C 20.655 6.96 20.655 7.759 20.512 8.54 C 20.512 8.63 20.512 8.73 20.512 8.82 C 20.512 8.91 20.432 9.15 20.622 9.29 C 20.707 9.378 20.753 9.497 20.752 9.62 C 20.765 10.417 20.557 11.203 20.152 11.89 C 20.093 12.035 19.958 12.135 19.802 12.15 L 19.672 12.15 C 19.532 12.58 19.422 13 19.262 13.41 C 19.102 13.82 18.972 13.94 18.842 14.21 C 18.799 14.304 18.775 14.406 18.772 14.51 C 18.764 14.586 18.764 14.663 18.772 14.74 C 18.845 15.219 19.194 15.611 19.662 15.74 C 20.382 16 21.092 16.24 21.822 16.48 L 21.822 18.1 L 8.872 18.1 C 8.589 17.78 8.322 17.446 8.072 17.1 C 8.302 17.02 8.492 16.93 8.692 16.88 C 10.063 16.532 11.401 16.067 12.692 15.49 C 12.835 15.44 12.947 15.325 12.992 15.18 C 13.062 14.94 13.132 14.7 13.192 14.45 C 13.201 14.371 13.179 14.293 13.132 14.23 C 12.691 13.591 12.395 12.864 12.262 12.1 C 12.229 12.013 12.178 11.935 12.112 11.87 C 11.985 11.734 11.871 11.587 11.772 11.43 C 11.518 10.897 11.352 10.326 11.282 9.74 C 11.278 9.676 11.278 9.613 11.282 9.55 C 11.282 9.13 11.402 8.98 11.792 8.88 C 11.719 8.53 11.665 8.176 11.632 7.82 C 11.561 6.752 11.921 5.7 12.632 4.9 C 13.305 4.049 14.246 3.45 15.302 3.2 C 15.615 3.135 15.933 3.101 16.252 3.1 M 16.252 2.1 C 15.866 2.101 15.48 2.141 15.102 2.22 C 13.847 2.516 12.725 3.219 11.912 4.22 C 11.009 5.214 10.544 6.529 10.622 7.87 C 10.629 8.04 10.645 8.211 10.672 8.38 C 10.387 8.701 10.24 9.121 10.262 9.55 C 10.255 9.656 10.255 9.763 10.262 9.87 C 10.345 10.563 10.541 11.239 10.842 11.87 C 10.938 12.055 11.059 12.227 11.202 12.38 L 11.282 12.47 C 11.423 13.197 11.691 13.894 12.072 14.53 L 12.072 14.65 C 10.902 15.168 9.691 15.59 8.452 15.91 C 8.275 15.958 8.101 16.019 7.932 16.09 L 7.732 16.16 L 6.482 16.61 L 7.272 17.69 C 7.541 18.057 7.828 18.411 8.132 18.75 L 8.432 19.08 L 22.802 19.08 L 22.802 15.75 L 22.102 15.53 C 21.432 15.32 20.742 15.08 19.982 14.81 C 19.772 14.73 19.762 14.69 19.742 14.54 L 19.822 14.4 C 19.941 14.201 20.044 13.994 20.132 13.78 C 20.232 13.52 20.322 13.26 20.392 13.01 C 20.633 12.865 20.83 12.658 20.962 12.41 C 21.454 11.567 21.703 10.605 21.682 9.63 C 21.673 9.362 21.598 9.101 21.462 8.87 L 21.462 8.78 C 21.631 7.864 21.631 6.925 21.462 6.01 C 21.346 5.167 20.843 4.427 20.102 4.01 C 19.908 3.894 19.732 3.749 19.582 3.58 C 18.725 2.646 17.519 2.11 16.252 2.1 Z"></path>
</svg>