<svg xmlns="http://www.w3.org/2000/svg" viewBox="2.103 -1.174 19 19" width="19" height="19">
  <path fill="#b0b7bd" d="M 11.463 17.516 L 11.713 15.826 C 13.412 15.762 15.039 15.12 16.323 14.006 L 21.103 17.826 L 17.173 13.156 C 18.275 11.839 18.889 10.182 18.913 8.466 L 20.823 8.186 L 18.903 7.896 C 18.797 6.275 18.165 4.734 17.103 3.506 L 21.103 -1.174 L 16.253 2.626 C 14.998 1.544 13.418 0.91 11.763 0.826 L 11.463 -1.174 L 11.163 0.826 L 10.503 5.296 C 10.225 5.387 9.963 5.518 9.723 5.686 L 6.103 2.826 L 8.943 6.456 C 8.781 6.69 8.653 6.945 8.563 7.216 L 2.103 8.186 L 3.923 8.456 C 3.942 10.202 4.572 11.886 5.703 13.216 L 2.103 17.826 L 3.103 16.826 L 6.553 14.046 C 7.856 15.155 9.502 15.784 11.213 15.826 L 11.463 17.496 L 11.463 17.516 Z M 10.753 14.516 C 7.3 14.52 4.388 11.944 3.973 8.516 L 8.543 9.186 C 8.633 9.467 8.765 9.733 8.933 9.976 L 7.933 11.726 L 9.673 10.726 C 9.926 10.908 10.206 11.05 10.503 11.146 L 11.003 14.546 L 10.753 14.546 L 10.753 14.516 Z M 11.933 14.416 L 12.433 11.096 C 12.707 11.003 12.966 10.872 13.203 10.706 L 14.923 11.706 L 13.923 9.976 C 14.096 9.73 14.23 9.461 14.323 9.176 L 17.473 8.706 C 17.047 11.617 14.801 13.927 11.903 14.436 L 11.933 14.416 Z M 17.573 7.706 L 14.333 7.216 C 14.238 6.941 14.103 6.682 13.933 6.446 L 14.933 4.676 L 13.163 5.676 C 12.937 5.523 12.692 5.402 12.433 5.316 L 11.773 0.936 C 15.106 1.445 17.567 4.314 17.563 7.686 L 17.573 7.706 Z"></path>
</svg>