<svg xmlns="http://www.w3.org/2000/svg" viewBox="1.233 0.664 19 17" width="19" height="17">
  <path fill="#b0b7bd" d="M 1.233 6.664 C 1.233 6.664 8.853 10.014 15.413 12.514 L 16.413 10.184 L 17.473 10.594 L 15.883 13.534 L 20.233 15.884 L 19.743 16.984 L 15.523 14.824 L 14.133 17.664 L 12.823 17.254 L 13.823 15.374 C 13.823 15.374 4.703 10.264 1.233 6.664 Z"></path>
  <path fill="#b0b7bd" d="M 4.233 5.664 C 7.03 2.52 11.025 0.704 15.233 0.664 C 15.233 0.664 8.793 1.604 6.233 6.664 L 4.233 5.664 Z"></path>
  <path fill="#b0b7bd" d="M 8.233 7.114 C 9.758 5.398 11.937 4.406 14.233 4.384 C 14.233 4.384 10.723 4.904 9.323 7.664 L 8.233 7.114 Z"></path>
  <path fill="#b0b7bd" d="M 11.233 8.554 C 12.294 7.364 13.809 6.678 15.403 6.664 C 13.991 6.889 12.746 7.718 11.993 8.934 L 11.233 8.554 Z"></path>
</svg>