<svg viewBox="3.458 0.384 18.06 16.845" width="18.06" height="16.845">
  <path fill="#b0b7bd" d="M 20.508 6.979 L 20.508 7.609 L 20.458 7.929 C 20.133 9.424 18.701 10.409 17.188 10.179 C 16.898 10.179 16.618 10.029 16.318 9.959 C 15.394 11.532 13.241 11.826 11.928 10.559 L 11.858 10.629 C 11.408 11.067 10.849 11.378 10.238 11.529 C 9.978 11.589 9.718 11.619 9.458 11.669 L 9.158 11.669 L 9.068 11.669 C 8.003 11.616 7.013 11.101 6.358 10.259 C 6.316 10.217 6.258 10.195 6.198 10.199 C 5.11 10.35 4.072 9.689 3.748 8.639 C 3.748 8.519 3.678 8.399 3.648 8.279 C 3.618 8.159 3.648 7.899 3.648 7.709 C 3.651 7.685 3.651 7.662 3.648 7.639 C 3.787 6.72 4.487 5.988 5.398 5.809 L 5.898 5.729 C 6.152 3.949 7.979 2.853 9.668 3.469 C 10.698 0.225 14.852 -0.687 17.146 1.826 C 17.811 2.554 18.213 3.485 18.288 4.469 L 18.398 4.469 C 19.389 4.754 20.152 5.547 20.398 6.549 C 20.458 6.719 20.458 6.849 20.508 6.979 Z"></path>
  <polygon fill="#b0b7bd" points="4.978 11.619 3.458 16.349 6.108 12.509 4.978 11.619"></polygon>
  <polygon fill="#b0b7bd" points="8.908 12.989 8.498 17.229 10.618 12.989 8.908 12.989"></polygon>
  <polygon fill="#b0b7bd" points="14.248 12.799 15.128 17.019 15.558 12.509 14.248 12.799"></polygon>
  <polygon fill="#b0b7bd" points="18.038 11.809 21.518 17.229 19.278 11.279 18.038 11.809"></polygon>
</svg>